<?xml version="1.0" encoding="UTF-8"?><svg version="1.1" viewBox="0 0 24 24" xmlns="http://www.w3.org/2000/svg"><g stroke-linecap="round" stroke-width="2" stroke="#000" fill="none" stroke-linejoin="round"><circle cx="12" cy="12" r="3"/><path d="M19.4 15l-.0001 0c-.2724.617-.1417 1.3378.33 1.82l.06.06 0 0c.7814.7806.7821 2.0469.0015 2.8284 -.0006.0005-.0011.001-.0016.0015l0-.0001c-.7807.7814-2.047.7821-2.8285.0015 -.0006-.0006-.0011-.0011-.0016-.0016l-.06-.06 -.0001-.0001c-.4822-.4717-1.203-.6024-1.82-.33l-.0001 0c-.6045.259-.9974.8523-1 1.51v.1699 0c0 1.1045-.8955 2-2 2l-.0001-.0001c-1.1046-.0001-2-.8955-2-2 0 0 0 0 0 0v-.09l0 0c-.0159-.6774-.4442-1.2762-1.08-1.5101l-.0001-.0001c-.6171-.2724-1.3379-.1417-1.82.33l-.06.06 0-.0001c-.7807.7814-2.047.7821-2.8285.0015 -.0006-.0006-.0011-.0011-.0016-.0016l-.0001-.0001c-.7815-.7807-.7822-2.047-.0016-2.8285 .0005-.0006.001-.0011.0015-.0016l.06-.06 -.0001 0c.4716-.4822.6023-1.203.33-1.82l-.0001-.0001c-.2591-.6045-.8524-.9974-1.5101-1h-.1701 -.0001c-1.1046-.0001-2-.8955-2-2 0 0 0 0 0 0l0 0c-.0001-1.1046.8954-2.0001 1.9999-2.0001h.09l-.0001 0c.6773-.0159 1.2761-.4442 1.51-1.0801l-.0001 0c.2723-.6171.1416-1.3379-.33-1.82l-.06-.06 -.0001-.0001c-.7815-.7807-.7822-2.047-.0016-2.8285 .0005-.0006.001-.0011.0015-.0016l0-.0001c.7806-.7815 2.0469-.7822 2.8284-.0016 .0005.0005.001.001.0015.0015l.06.06 0 0c.4821.4716 1.2029.6023 1.82.3299h.0799l-.0001 0c.6044-.2591.9973-.8524 1-1.51v-.1701l0 0c-.0001-1.1046.8954-2.0001 1.9999-2.0001l-.0001 0c1.1045-.0001 2 .8954 2 2v.09l-.0001-.0001c.0026.6576.3955 1.2509.9999 1.51l0 0c.617.2723 1.3378.1416 1.82-.3301l.06-.06 0-.0001c.7806-.7815 2.0469-.7822 2.8284-.0016 .0005.0005.001.001.0015.0015l0 0c.7814.7806.7821 2.0469.0015 2.8284 -.0006.0005-.0011.001-.0016.0015l-.06.06 -.0001 0c-.4717.4821-.6024 1.2029-.33 1.82v.08l-.0001-.0001c.259.6044.8523.9973 1.51 1h.17l-.0001 0c1.1045-.0001 2 .8954 2 2v0c0 1.1045-.8955 2-2 2h-.09l0-.0001c-.6577.0026-1.251.3955-1.51 1Z"/></g></svg>